<svg width="87" height="17" viewBox="0 0 87 17" fill="none" xmlns="http://www.w3.org/2000/svg">
<g clip-path="url(#clip0_1167_58)">
<path d="M3.41542 16.1912C3.05039 16.3988 2.6362 16.035 2.70996 15.5706L3.49485 10.6114L0.163302 7.09277C-0.147819 6.76355 0.013888 6.16174 0.430923 6.09674L5.06275 5.36701L7.12807 0.830354C7.31436 0.421457 7.8184 0.421457 8.00469 0.830354L10.07 5.36701L14.7018 6.09674C15.1189 6.16174 15.2806 6.76355 14.9685 7.09277L11.6379 10.6114L12.4228 15.5706C12.4966 16.035 12.0824 16.3988 11.7173 16.1912L7.56496 13.8259L3.41447 16.1912H3.41542Z" fill="#FFBA0A"/>
</g>
<g clip-path="url(#clip1_1167_58)">
<path d="M21.3832 16.1912C21.0182 16.3988 20.604 16.035 20.6777 15.5706L21.4626 10.6114L18.1311 7.09277C17.82 6.76355 17.9817 6.16174 18.3987 6.09674L23.0305 5.36701L25.0958 0.830354C25.2821 0.421457 25.7862 0.421457 25.9725 0.830354L28.0378 5.36701L32.6696 6.09674C33.0866 6.16174 33.2484 6.76355 32.9363 7.09277L29.6057 10.6114L30.3906 15.5706C30.4643 16.035 30.0501 16.3988 29.6851 16.1912L25.5327 13.8259L21.3822 16.1912H21.3832Z" fill="#FFBA0A"/>
</g>
<g clip-path="url(#clip2_1167_58)">
<path d="M39.351 16.1912C38.9859 16.3988 38.5717 16.035 38.6455 15.5706L39.4304 10.6114L36.0988 7.09277C35.7877 6.76355 35.9494 6.16174 36.3665 6.09674L40.9983 5.36701L43.0636 0.830354C43.2499 0.421457 43.7539 0.421457 43.9402 0.830354L46.0056 5.36701L50.6374 6.09674C51.0544 6.16174 51.2161 6.76355 50.9041 7.09277L47.5735 10.6114L48.3583 15.5706C48.4321 16.035 48.0179 16.3988 47.6529 16.1912L43.5005 13.8259L39.35 16.1912H39.351Z" fill="#FFBA0A"/>
</g>
<g clip-path="url(#clip3_1167_58)">
<path d="M57.3187 16.1912C56.9537 16.3988 56.5395 16.035 56.6133 15.5706L57.3982 10.6114L54.0666 7.09277C53.7555 6.76355 53.9172 6.16174 54.3342 6.09674L58.9661 5.36701L61.0314 0.830354C61.2177 0.421457 61.7217 0.421457 61.908 0.830354L63.9733 5.36701L68.6052 6.09674C69.0222 6.16174 69.1839 6.76355 68.8718 7.09277L65.5412 10.6114L66.3261 15.5706C66.3999 16.035 65.9857 16.3988 65.6207 16.1912L61.4683 13.8259L57.3178 16.1912H57.3187Z" fill="#FFBA0A"/>
</g>
<g clip-path="url(#clip4_1167_58)">
<path d="M75.2846 16.1912C74.9195 16.3988 74.5053 16.035 74.5791 15.5706L75.364 10.6114L72.0324 7.09277C71.7213 6.76355 71.883 6.16174 72.3001 6.09674L76.9319 5.36701L78.9972 0.830354C79.1835 0.421457 79.6875 0.421457 79.8738 0.830354L81.9391 5.36701L86.571 6.09674C86.988 6.16174 87.1497 6.76355 86.8377 7.09277L83.507 10.6114L84.2919 15.5706C84.3657 16.035 83.9515 16.3988 83.5865 16.1912L79.4341 13.8259L75.2836 16.1912H75.2846Z" fill="#FFBA0A"/>
</g>
<defs>
<clipPath id="clip0_1167_58">
<rect width="15.1305" height="16.7753" fill="white"/>
</clipPath>
<clipPath id="clip1_1167_58">
<rect width="15.1305" height="16.7753" fill="white" transform="translate(17.9678)"/>
</clipPath>
<clipPath id="clip2_1167_58">
<rect width="15.1305" height="16.7753" fill="white" transform="translate(35.9355)"/>
</clipPath>
<clipPath id="clip3_1167_58">
<rect width="15.1305" height="16.7753" fill="white" transform="translate(53.9033)"/>
</clipPath>
<clipPath id="clip4_1167_58">
<rect width="15.1305" height="16.7753" fill="white" transform="translate(71.8691)"/>
</clipPath>
</defs>
</svg>
